<svg xmlns="http://www.w3.org/2000/svg" viewBox="0 0 1080 1080"><path fill="#ffffff" d="M1080,477.72v104.55c-19.84,255.58-221.7,461.02-474.67,491.57-21.43,2.58-43.24,6.16-65.33,6.16-54.13,0-106.38-10.24-155.64-25.12-4.06-11.11-3.07-24.13,4.96-35.2l202.02-279.04s0-.02,0-.03c6.37-8.82,9.79-19.38,9.79-30.25v-56.18c0-44.75-53.1-68.29-86.26-38.22l-113.72,103.09s0,.01-.03.03c-20.39,18.44-51.67,17.67-71.11-1.78l-88.8-88.8c-19.63-19.64-20.21-51.29-1.29-71.63l252.97-271.94.02-.02c30.69-33,7.27-86.73-37.8-86.73h-29.65c-13.7,0-26.81,5.44-36.49,15.11h-.02S88.09,514.19,88.09,514.19c-.03.03-.08.08-.11.11L0,602.28v-104.55C19.37,248.14,212.34,46.37,456.96,8.6c5.88-.9,11.77-1.71,17.71-2.44,21.43-2.58,43.24-6.16,65.33-6.16,54.13,0,106.38,10.24,155.64,25.12,4.06,11.11,3.07,24.13-4.96,35.2l-202.02,279.04s0,.02,0,.03c-6.37,8.82-9.79,19.4-9.79,30.25v56.18c0,44.75,53.1,68.29,86.26,38.22l113.72-103.09s0-.01.03-.03c20.39-18.44,51.67-17.67,71.11,1.78l88.8,88.8c19.63,19.64,20.21,51.29,1.29,71.63l-252.97,271.94-.02.02c-30.69,33-7.27,86.73,37.8,86.73h29.65c13.7,0,26.81-5.44,36.49-15.11h.02s300.87-300.9,300.87-300.9c.03-.03.08-.08.11-.11l87.98-87.98Z" /></svg>